<?xml version="1.0" encoding="utf-8"?>
<svg xmlns="http://www.w3.org/2000/svg" viewBox="0 0 500 500" xmlns:bx="https://boxy-svg.com" width="500px" height="500px"><defs><radialGradient gradientUnits="userSpaceOnUse" cx="54.561" cy="184.269" r="32.865" id="gradient-3" gradientTransform="matrix(1.308017, -2.08799, 1.789981, 1.121331, -330.039894, 132.370609)"><stop offset="0" style="stop-color: rgb(135, 151, 242);"/><stop offset="1" style="stop-color: rgb(48, 59, 125);"/></radialGradient><linearGradient id="gradient-0" x1="89.362" x2="89.362" y1="42.62" y2="189.328" gradientUnits="userSpaceOnUse" gradientTransform="matrix(0, -0.597196, 0.597196, 0, 21.954207, 155.600958)"><stop offset="0" style="stop-color: rgb(112, 112, 174);"/><stop offset="1" style="stop-color: rgb(192, 112, 149);"/></linearGradient><radialGradient gradientUnits="userSpaceOnUse" cx="54.561" cy="184.269" r="32.865" id="gradient-2" gradientTransform="matrix(1.308017, 2.08799, 1.789981, -1.121331, -253.240655, 247.970052)"><stop offset="0" style="stop-color: rgb(251, 98, 93);"/><stop offset="1" style="stop-color: rgb(160, 72, 78);"/></radialGradient><linearGradient id="gradient-4" x1="89.362" x2="89.362" y1="42.62" y2="189.328" gradientUnits="userSpaceOnUse" gradientTransform="matrix(0, 0.597196, 0.597196, 0, 121.790157, 76.159324)"><stop offset="0" style="stop-color: rgb(255, 147, 146);"/><stop offset="1" style="stop-color: rgb(251, 221, 199);"/></linearGradient><bx:export><bx:file format="svg" path="Test.svg" normalization="{&quot;splitCompoundPaths&quot;:true}"/></bx:export></defs><g transform="matrix(2.442215, 0, 0, 2.442215, -105.084663, -94.41954)" style=""><g transform="matrix(1, 0, 0, 1, 6.181989, 1.626421)"><path style="fill: url(&quot;#gradient-3&quot;);" d="M 68.095 154.404 L 68.095 222.26 C 68.095 222.26 65.486 236.428 82.442 236.283 C 99.398 236.138 135.627 215.994 133.598 190.054 C 131.569 164.114 121.508 151.215 84.905 144.259 C 73.891 142.375 68.385 148.027 68.095 154.404 Z"/><path style="stroke-miterlimit: 1; stroke-linecap: round; stroke-linejoin: round; fill: url(&quot;#gradient-0&quot;);" d="M 63.646 44.336 C 63.646 44.336 44.525 37.195 44.525 50.018 C 44.525 62.841 44.525 117.365 44.525 121.02 C 44.525 124.675 44.4 130.497 54.54 134.697 C 64.68 138.897 77.173 141.88 100.874 151.697 C 124.575 161.514 133.452 181.133 133.452 189.328 C 133.452 189.328 134.06 113.332 134.06 104.042 C 134.06 102.355 135.046 86.877 125.173 77.004 C 115.3 67.131 101.653 57.426 63.646 44.336 Z"/></g><g id="object-1" transform="matrix(1, 0, 0, 1, 6.181989, 1.626421)"><path style="fill: url(&quot;#gradient-2&quot;);" d="M 144.891 225.936 L 144.891 158.08 C 144.891 158.08 142.282 143.912 159.238 144.057 C 176.194 144.202 212.423 164.346 210.394 190.286 C 208.365 216.226 198.304 229.125 161.701 236.081 C 150.687 237.965 145.181 232.313 144.891 225.936 Z" transform="matrix(-1, 0, 0, -1, 355.222319074215, 380.50473522461)"><title>2</title></path><path style="stroke-miterlimit: 1; stroke-linecap: round; stroke-linejoin: round; fill: url(&quot;#gradient-4&quot;);" d="M 163.48 187.425 C 163.48 187.425 144.359 194.566 144.359 181.743 C 144.359 168.92 144.359 114.223 144.359 109.628 C 144.359 105.033 144.234 101.264 154.374 97.064 C 164.514 92.864 177.007 89.881 200.708 80.064 C 224.409 70.247 233.286 50.628 233.286 42.433 L 233.894 127.719 C 233.894 127.719 234.448 145.316 225.007 154.757 C 215.566 164.198 201.487 174.335 163.48 187.425 Z" transform="matrix(-1, 0, 0, -1, 378.259036203125, 231.840605689453)"><title>Pathy-2</title></path></g></g></svg>